<svg width="400" height="63" viewBox="0 0 400 63" fill="none" xmlns="http://www.w3.org/2000/svg">
<path fill-rule="evenodd" clip-rule="evenodd" d="M124.132 0C131.093 0 136.961 0.796411 141.635 2.48879C146.308 4.18116 150.087 6.37131 152.872 9.2583C155.656 12.1453 157.645 15.4305 158.839 19.1139C160.032 22.7973 160.629 26.7793 160.629 30.8609C160.629 34.9425 159.932 38.9246 158.64 42.7076C157.347 46.4905 155.258 49.8753 152.375 52.7622C149.491 55.6492 145.811 58.0385 141.137 59.7308C136.463 61.4232 130.795 62.3192 124.132 62.3192H88.531V0.0995568H124.132V0ZM101.359 51.269H123.834C128.408 51.269 132.287 50.6717 135.37 49.5766C138.452 48.4816 140.839 46.8887 142.629 44.9972C144.419 43.1058 145.712 40.9157 146.507 38.4269C147.303 36.0376 147.701 33.4493 147.701 30.8609C147.701 28.2726 147.303 25.6842 146.507 23.3946C145.712 21.0053 144.419 18.9148 142.629 17.0233C140.839 15.1318 138.452 13.6385 135.37 12.643C132.287 11.548 128.508 11.0502 123.834 11.0502H101.359V51.269ZM0 62.2197L29.2368 6.02603e-05H43.0596L72.5947 62.2197H58.6725L52.5097 48.6807H20.0371L13.9223 62.2197H0ZM36.21 12.8718L47.6611 38.0287H24.848L36.21 12.8718ZM198.2 0L168.963 62.2197H182.786L188.925 48.6807H221.473L227.635 62.2197H241.558L212.023 0H198.2ZM216.624 38.0287L205.167 12.8585L193.754 38.0287H216.624ZM271.227 62.2197V42.2098H296.983C300.463 42.2098 303.646 41.8116 306.728 41.1148C309.712 40.3184 312.397 39.1237 314.684 37.5309C316.971 35.9381 318.761 33.748 320.054 31.1596C321.347 28.4717 321.943 25.2861 321.943 21.6027C321.943 17.8197 321.347 14.5345 320.054 11.8466C318.761 9.15873 316.971 6.86903 314.684 5.17666C312.397 3.38473 309.811 2.09057 306.728 1.29416C303.745 0.398193 300.463 0 296.983 0H258.398V62.2197H271.227ZM298.176 31.8565H271.227V10.9506H298.176C301.557 10.9506 304.242 11.8466 306.231 13.6385C308.22 15.4305 309.214 18.0188 309.214 21.4035C309.214 24.6887 308.22 27.2771 306.231 29.069C304.242 30.9605 301.557 31.8565 298.176 31.8565ZM400 0H334.466V10.652H360.918V62.2197H373.747V10.652H400V0Z" fill="white"/>
</svg>
